<svg width="484" height="39" viewBox="0 0 484 39" fill="none" xmlns="http://www.w3.org/2000/svg">
<g clip-path="url(#clip0_657_18890)">
<path d="M0 31.0236V0.560194H4.77659C6.23199 0.560194 7.46854 0.598499 8.50265 0.702469V6.18556C8.13606 6.12537 7.73117 6.08159 7.28799 6.08159H5.78881V12.5004H7.06366C7.58892 12.5004 8.07588 12.4621 8.50265 12.38V17.7427C8.03758 17.7044 7.52873 17.6825 6.98159 17.6825H5.78881V25.4968H7.24422C7.6874 25.4968 8.11418 25.4968 8.49718 25.4749V31.0182H0V31.0236ZM34.7438 7.99137V13.1297H34.6836C32.9218 13.1297 31.4664 13.759 30.3119 14.9902C29.1574 16.227 28.572 17.8029 28.572 19.7455C28.572 21.6882 29.1574 23.286 30.3502 24.5391C31.5266 25.7923 32.982 26.4216 34.7 26.4216H34.7383V31.5435C34.3936 31.5654 34.0325 31.5818 33.6878 31.5818C30.7715 31.5818 28.2437 30.4491 26.1208 28.2C23.9978 25.951 22.9418 23.1602 22.9418 19.8003C22.9418 16.4404 23.9541 13.4635 26.0168 11.2418C28.0795 9.01466 30.5691 7.90382 33.5236 7.90382C33.9285 7.90382 34.3334 7.92571 34.7383 7.9859M8.50265 0.702469C9.4711 0.784552 10.2645 0.926828 10.8718 1.08552C12.6938 1.57254 14.1492 2.48092 15.2216 3.77782C16.294 5.09113 16.8412 6.6507 16.8412 8.43462C16.8412 9.58924 16.6004 10.6399 16.1135 11.592C15.6101 12.5223 14.8167 13.4362 13.706 14.2406C15.5663 15.1106 16.9232 16.2051 17.7713 17.502C18.6194 18.8153 19.068 20.353 19.068 22.1369C19.068 23.9208 18.6194 25.4147 17.733 26.832C16.8412 28.211 15.7086 29.2616 14.3133 29.9675C12.9181 30.657 10.9922 31.0182 8.52454 31.0182H8.50265V25.4749C10.2207 25.3764 11.4135 25.0918 12.1029 24.5829C12.9345 23.9755 13.3558 23.1054 13.3558 21.9344C13.3558 20.6211 12.8689 19.5869 11.8785 18.8153C11.129 18.2517 10.0182 17.885 8.49718 17.7427V12.38C9.203 12.2378 9.77203 11.997 10.1988 11.6085C10.8882 11.0229 11.211 10.2131 11.211 9.20072C11.211 8.18837 10.8882 7.48246 10.2426 6.91336C9.8158 6.54672 9.23036 6.30595 8.50265 6.18556V0.702469ZM51.9679 8.49481H57.6747V19.3461C57.6747 21.4529 57.8169 22.9249 58.1179 23.7566C58.4024 24.5665 58.8675 25.2122 59.5131 25.6609C60.1587 26.1261 60.9521 26.3504 61.8822 26.3504C62.8124 26.3504 63.6222 26.1261 64.2678 25.6828C64.9353 25.2396 65.4223 24.572 65.7451 23.7019C65.9694 23.0562 66.0898 21.6772 66.0898 19.5321V8.49481H71.7582V18.0492C71.7582 21.9727 71.4518 24.665 70.8281 26.1261C70.0785 27.8662 68.9678 29.2452 67.4905 30.1755C66.0132 31.1276 64.131 31.5928 61.8439 31.5928C59.3763 31.5928 57.3683 31.0455 55.8527 29.9347C54.3152 28.8403 53.2428 27.3026 52.6355 25.3381C52.1923 23.9646 51.9679 21.4747 51.9679 17.8905V8.49481ZM34.7438 31.549V26.427C36.5056 26.427 37.9829 25.7977 39.1374 24.5829C40.3137 23.3462 40.8992 21.7319 40.8992 19.7072C40.8992 17.6825 40.3137 16.1668 39.1374 14.9519C37.9829 13.759 36.5056 13.1516 34.7438 13.1297V7.99137C35.6356 8.08987 36.5056 8.33612 37.3318 8.68086C38.5246 9.1843 39.6189 9.95587 40.6311 10.9901V8.50028H46.2557V31.0291H40.6311V28.6378C39.5149 29.6884 38.4261 30.4381 37.3099 30.9033C36.5001 31.2261 35.6302 31.4505 34.7383 31.549M98.0595 19.0232C98.0595 19.3078 98.0376 19.6087 98.0376 19.8933C98.0376 20.1778 98.0595 20.4624 98.0595 20.7251V19.0232ZM98.0595 0.505472V6.29501L90.1861 6.27312V31.0236H84.2988V6.26764H76.2831V0.560194L98.0595 0.5V0.505472ZM98.0595 0.505472H98.0814V6.29501H98.0595V0.5V0.505472ZM109.878 7.91476V12.7084C108.34 12.7084 106.983 13.1516 105.829 14.0272C105.079 14.5744 104.39 15.5648 103.744 16.9602H109.878V21.4146H103.504C103.766 23.0124 104.478 24.2874 105.61 25.2177C106.743 26.148 108.16 26.635 109.878 26.6569V31.5928C106.398 31.5709 103.564 30.46 101.381 28.2547C99.3344 26.23 98.2456 23.7238 98.0595 20.7251V19.0232C98.2401 15.9698 99.3344 13.3979 101.359 11.313C103.586 9.0475 106.36 7.91476 109.697 7.91476H109.878ZM124.208 8.50028H130.784L135.194 14.651L139.665 8.50028H146.159L138.45 19.1655L147.111 31.0236H140.556L135.194 23.6362L129.892 31.0236H123.398L131.939 19.1655L124.208 8.50028ZM109.878 21.4146V16.9602H115.99C115.607 15.6852 114.879 14.6729 113.806 13.8849C112.712 13.0969 111.415 12.7084 109.982 12.7084H109.878V7.91476C113.341 7.95307 116.154 9.0858 118.337 11.313C120.564 13.6003 121.756 16.5936 121.674 20.3201L121.652 21.4146H109.872H109.878ZM109.878 31.5928V26.6569H109.982C112.088 26.6569 113.905 25.9072 115.404 24.4297L121.636 24.4078C119.858 28.2329 117.571 29.5681 115.891 30.3779C114.25 31.1878 112.307 31.5928 110.02 31.5928H109.878Z" fill="#1B487B"/>
<path d="M421.861 15.9268H452.933V0.375H484V15.9268H452.933V31.4294H421.861V15.9268Z" fill="#FFDD00"/>
<path d="M191.567 6.04516L187.562 9.86472C184.837 6.98637 181.767 5.54172 178.364 5.54172C175.486 5.54172 173.068 6.52671 171.098 8.49121C169.128 10.4557 168.143 12.8799 168.143 15.7637C168.143 17.772 168.581 19.5559 169.451 21.11C170.321 22.6641 171.558 23.8898 173.15 24.7763C174.742 25.6628 176.515 26.1061 178.463 26.1061C180.126 26.1061 181.642 25.7941 183.02 25.1758C184.399 24.5574 185.909 23.4247 187.562 21.7885L191.446 25.8434C189.225 28.0158 187.124 29.5207 185.143 30.3579C183.168 31.1952 180.908 31.6165 178.37 31.6165C173.692 31.6165 169.862 30.1336 166.88 27.1677C163.898 24.2017 162.409 20.3986 162.409 15.7582C162.409 12.7595 163.088 10.0891 164.445 7.75794C165.802 5.42681 167.744 3.54986 170.277 2.13257C172.811 0.715286 175.53 0.00390625 178.452 0.00390625C180.936 0.00390625 183.327 0.529233 185.625 1.57989C187.923 2.63054 189.903 4.11896 191.567 6.0561V6.04516Z" fill="#1B487B"/>
<path d="M206.422 8.01953C208.523 8.01953 210.498 8.54486 212.347 9.59551C214.197 10.6462 215.636 12.0689 216.675 13.8747C217.709 15.6751 218.229 17.6177 218.229 19.708C218.229 21.7984 217.709 23.7738 216.664 25.6015C215.619 27.4292 214.197 28.8575 212.397 29.8862C210.597 30.915 208.61 31.4294 206.444 31.4294C203.254 31.4294 200.529 30.2912 198.269 28.0202C196.01 25.7493 194.882 22.9913 194.882 19.7409C194.882 16.2606 196.157 13.3658 198.707 11.0456C200.945 9.02641 203.516 8.01953 206.422 8.01953ZM206.515 13.2783C204.78 13.2783 203.336 13.8802 202.181 15.0895C201.027 16.2989 200.447 17.842 200.447 19.7245C200.447 21.6069 201.016 23.2321 202.16 24.4305C203.298 25.6289 204.742 26.2308 206.493 26.2308C208.244 26.2308 209.699 25.6234 210.859 24.4086C212.019 23.1938 212.599 21.6342 212.599 19.7245C212.599 17.8147 212.03 16.2606 210.886 15.0677C209.748 13.8747 208.288 13.2783 206.509 13.2783H206.515Z" fill="#1B487B"/>
<path d="M222.749 8.59411H228.335V11.1496C229.293 10.0989 230.354 9.31643 231.519 8.79658C232.685 8.27672 233.96 8.01953 235.338 8.01953C236.717 8.01953 237.987 8.3588 239.108 9.04282C240.224 9.72684 241.127 10.7228 241.811 12.0306C242.698 10.7228 243.786 9.72684 245.078 9.04282C246.369 8.3588 247.775 8.01953 249.307 8.01953C250.839 8.01953 252.284 8.38617 253.482 9.12491C254.68 9.86365 255.545 10.8213 256.07 12.0087C256.595 13.1962 256.858 15.1279 256.858 17.7983V30.8548H251.233V19.5603C251.233 17.0376 250.921 15.3303 250.292 14.4329C249.663 13.5409 248.722 13.0922 247.469 13.0922C246.511 13.0922 245.658 13.3658 244.903 13.913C244.148 14.4603 243.584 15.2099 243.217 16.173C242.851 17.1361 242.665 18.6793 242.665 20.8079V30.8548H237.04V20.0692C237.04 18.0773 236.892 16.6327 236.597 15.7407C236.301 14.8488 235.864 14.1812 235.273 13.7434C234.687 13.3056 233.976 13.0867 233.139 13.0867C232.209 13.0867 231.366 13.3603 230.606 13.913C229.845 14.4657 229.282 15.2373 228.904 16.2332C228.526 17.2292 228.34 18.7997 228.34 20.9393V30.8439H222.754V8.59411H222.749Z" fill="#1B487B"/>
<path d="M267.719 8.59645V11.0534C268.725 10.0466 269.82 9.28594 270.991 8.7825C272.161 8.27906 273.42 8.02734 274.755 8.02734C277.66 8.02734 280.128 9.12725 282.163 11.3216C284.193 13.5159 285.211 16.3341 285.211 19.7706C285.211 23.2071 284.16 25.8556 282.059 28.0882C279.958 30.3209 277.469 31.4317 274.591 31.4317C273.31 31.4317 272.118 31.2019 271.012 30.7477C269.907 30.2935 268.807 29.5438 267.719 28.5096V39.0052H262.176V8.59645H267.719ZM273.589 13.1821C271.828 13.1821 270.372 13.784 269.212 14.9824C268.052 16.1808 267.472 17.7514 267.472 19.6885C267.472 21.6256 268.052 23.2673 269.212 24.4876C270.372 25.7079 271.833 26.3207 273.589 26.3207C275.346 26.3207 276.73 25.7024 277.895 24.4602C279.061 23.218 279.646 21.6366 279.646 19.7104C279.646 17.7842 279.072 16.2356 277.928 15.0153C276.785 13.795 275.335 13.1821 273.589 13.1821Z" fill="#1B487B"/>
<path d="M300.29 8.01953C302.391 8.01953 304.366 8.54486 306.216 9.59551C308.065 10.6462 309.504 12.0689 310.544 13.8747C311.578 15.6751 312.098 17.6177 312.098 19.708C312.098 21.7984 311.578 23.7738 310.533 25.6015C309.488 27.4292 308.065 28.8575 306.265 29.8862C304.465 30.915 302.479 31.4294 300.312 31.4294C297.122 31.4294 294.397 30.2912 292.138 28.0202C289.878 25.7493 288.751 22.9913 288.751 19.7409C288.751 16.2606 290.026 13.3658 292.575 11.0456C294.813 9.02641 297.385 8.01953 300.29 8.01953ZM300.383 13.2783C298.649 13.2783 297.204 13.8802 296.05 15.0895C294.895 16.2989 294.315 17.842 294.315 19.7245C294.315 21.6069 294.884 23.2321 296.028 24.4305C297.166 25.6289 298.61 26.2308 300.361 26.2308C302.112 26.2308 303.568 25.6234 304.728 24.4086C305.887 23.1938 306.467 21.6342 306.467 19.7245C306.467 17.8147 305.898 16.2606 304.755 15.0677C303.617 13.8747 302.156 13.2783 300.378 13.2783H300.383Z" fill="#1B487B"/>
<path d="M330.285 11.7023L326.827 15.1607C325.421 13.7708 324.146 13.0758 323.002 13.0758C322.373 13.0758 321.886 13.2071 321.53 13.4753C321.175 13.7434 321 14.0717 321 14.4657C321 14.7667 321.115 15.0403 321.339 15.292C321.563 15.5437 322.121 15.8885 323.008 16.3263L325.054 17.3495C327.21 18.4111 328.687 19.5001 329.491 20.6055C330.296 21.7108 330.701 23.0077 330.701 24.4907C330.701 26.4661 329.973 28.1187 328.523 29.443C327.073 30.7673 325.125 31.4294 322.679 31.4294C319.435 31.4294 316.841 30.1598 314.904 27.6208L318.341 23.8778C318.997 24.6439 319.763 25.2568 320.644 25.7274C321.525 26.198 322.307 26.4333 322.986 26.4333C323.724 26.4333 324.315 26.2582 324.764 25.9025C325.213 25.5468 325.437 25.1364 325.437 24.6767C325.437 23.8176 324.627 22.9804 323.002 22.1596L321.12 21.2184C317.52 19.4016 315.72 17.1307 315.72 14.4055C315.72 12.6435 316.398 11.1441 317.755 9.89101C319.112 8.63788 320.846 8.01953 322.964 8.01953C324.408 8.01953 325.771 8.33692 327.046 8.97168C328.32 9.60645 329.404 10.5148 330.29 11.7023H330.285Z" fill="#1B487B"/>
<path d="M337.272 0.386719C338.251 0.386719 339.088 0.742408 339.794 1.44832C340.495 2.15969 340.845 3.01882 340.845 4.0257C340.845 5.03257 340.5 5.86981 339.805 6.57572C339.11 7.27615 338.279 7.63184 337.316 7.63184C336.353 7.63184 335.477 7.27615 334.777 6.5593C334.076 5.84245 333.726 4.97238 333.726 3.94909C333.726 2.9258 334.071 2.12686 334.766 1.4319C335.461 0.736936 336.298 0.386719 337.277 0.386719H337.272ZM334.481 8.58947H340.068V30.8502H334.481V8.59494V8.58947Z" fill="#1B487B"/>
<path d="M345.813 0.386719H351.399V8.58947H354.715V13.3995H351.399V30.8556H345.813V13.3995H342.946V8.58947H345.813V0.386719Z" fill="#1B487B"/>
<path d="M379.998 21.3387H362.057C362.315 22.9202 363.01 24.1788 364.137 25.1145C365.264 26.0503 366.697 26.5154 368.443 26.5154C370.527 26.5154 372.322 25.7876 373.821 24.3265L378.527 26.5373C377.356 28.2008 375.95 29.432 374.314 30.231C372.678 31.0299 370.735 31.4294 368.481 31.4294C364.99 31.4294 362.145 30.3295 359.951 28.1242C357.757 25.9189 356.657 23.161 356.657 19.8448C356.657 16.5287 357.751 13.6285 359.94 11.3849C362.129 9.14132 364.875 8.01953 368.175 8.01953C371.682 8.01953 374.532 9.14132 376.727 11.3849C378.921 13.6285 380.02 16.5944 380.02 20.2771L379.998 21.3387ZM374.412 16.9391C374.04 15.697 373.318 14.6901 372.229 13.913C371.14 13.136 369.882 12.7475 368.448 12.7475C366.889 12.7475 365.526 13.1852 364.35 14.0553C363.611 14.6025 362.927 15.5602 362.298 16.9391H374.412Z" fill="#1B487B"/>
<path d="M398.147 11.7023L394.689 15.1607C393.283 13.7708 392.008 13.0758 390.865 13.0758C390.236 13.0758 389.749 13.2071 389.393 13.4753C389.037 13.7434 388.862 14.0717 388.862 14.4657C388.862 14.7667 388.977 15.0403 389.201 15.292C389.426 15.5437 389.984 15.8885 390.87 16.3263L392.917 17.3495C395.072 18.4111 396.55 19.5001 397.354 20.6055C398.158 21.7108 398.563 23.0077 398.563 24.4907C398.563 26.4661 397.835 28.1187 396.385 29.443C394.936 30.7673 392.988 31.4294 390.542 31.4294C387.297 31.4294 384.704 30.1598 382.767 27.6208L386.203 23.8778C386.86 24.6439 387.626 25.2568 388.507 25.7274C389.387 26.198 390.17 26.4333 390.848 26.4333C391.587 26.4333 392.178 26.2582 392.627 25.9025C393.075 25.5468 393.3 25.1364 393.3 24.6767C393.3 23.8176 392.49 22.9804 390.865 22.1596L388.983 21.2184C385.382 19.4016 383.582 17.1307 383.582 14.4055C383.582 12.6435 384.261 11.1441 385.618 9.89101C386.975 8.64336 388.709 8.01953 390.826 8.01953C392.271 8.01953 393.633 8.33692 394.908 8.97168C396.183 9.60645 397.266 10.5148 398.153 11.7023H398.147Z" fill="#1B487B"/>
</g>
<defs>
<clipPath id="clip0_657_18890">
<rect width="484" height="39" fill="white"/>
</clipPath>
</defs>
</svg>
